<svg xmlns="http://www.w3.org/2000/svg" width="400" height="600" viewBox="0 0 400 600">
  <defs>
    <linearGradient id="bg" x1="0" y1="0" x2="0.4" y2="1">
      <stop offset="0" stop-color="#0d1b3b"/>
      <stop offset="0.65" stop-color="#0c0b10"/>
      <stop offset="1" stop-color="#080809"/>
    </linearGradient>
    <radialGradient id="glow" cx="0.5" cy="0.32" r="0.55">
      <stop offset="0" stop-color="#3d7bff" stop-opacity="0.5"/>
      <stop offset="1" stop-color="#3d7bff" stop-opacity="0"/>
    </radialGradient>
    <pattern id="scan" width="4" height="4" patternUnits="userSpaceOnUse">
      <rect width="4" height="4" fill="none"/>
      <rect y="3" width="4" height="1" fill="#000" opacity="0.25"/>
    </pattern>
  </defs>
  <rect width="400" height="600" fill="url(#bg)"/>
  <rect width="400" height="600" fill="url(#glow)"/>
  <g opacity="0.9">
  <circle cx="200" cy="210" r="95" fill="none" stroke="#3d7bff" stroke-width="2.5" opacity="0.9"/>
  <circle cx="200" cy="210" r="60" fill="none" stroke="#3d7bff" stroke-width="1.5" opacity="0.6"/>
  <circle cx="200" cy="210" r="26" fill="#0d1b3b" stroke="#7aa5ff" stroke-width="2"/>
  <circle cx="200" cy="210" r="10" fill="#3d7bff"/>
  <g stroke="#3d7bff" stroke-width="1.5" fill="none" opacity="0.75">
    <path d="M200 115 v-55 h70"/><path d="M200 305 v55 h-80"/><path d="M105 210 h-65 v-70"/><path d="M295 210 h65 v80"/>
    <circle cx="270" cy="60" r="4"/><circle cx="120" cy="360" r="4"/><circle cx="40" cy="140" r="4"/><circle cx="360" cy="290" r="4"/>
  </g>
  <g fill="#7aa5ff" opacity="0.5"><rect x="60" y="300" width="30" height="90"/><rect x="310" y="320" width="30" height="70"/>
  <rect x="100" y="330" width="24" height="60"/><rect x="276" y="340" width="24" height="50"/></g>
</g>
  <rect width="400" height="600" fill="url(#scan)"/>
  <rect x="8" y="8" width="384" height="584" fill="none" stroke="#3d7bff" stroke-opacity="0.55" stroke-width="1.5"/>
  <rect x="14" y="14" width="372" height="572" fill="none" stroke="#ffffff" stroke-opacity="0.08" stroke-width="1"/>
  <rect x="0" y="420" width="400" height="228" fill="#000" opacity="0.35"/>
  <text x="30" y="472" font-family="Arial, sans-serif" font-size="12" font-weight="bold"
        fill="#3d7bff" letter-spacing="6">CIENCIA FICCION</text>
  <text x="30" y="500" font-family="Arial Black, Arial, sans-serif" font-size="30" font-weight="900" fill="#f5f5f7" letter-spacing="1">CIUDAD</text><text x="30" y="538" font-family="Arial Black, Arial, sans-serif" font-size="30" font-weight="900" fill="#f5f5f7" letter-spacing="1">CROMO</text>
  <rect x="322" y="30" width="48" height="26" rx="3" fill="none" stroke="#3d7bff" stroke-width="1.5"/>
  <text x="346" y="48" font-family="Arial, sans-serif" font-size="14" font-weight="bold"
        fill="#3d7bff" text-anchor="middle">18+</text>
  <text x="30" y="572" font-family="Arial, sans-serif" font-size="9" fill="#8a8a93"
        letter-spacing="5">MICOS HAKARI · PRESENTA</text>
</svg>