<svg xmlns="http://www.w3.org/2000/svg" width="400" height="600" viewBox="0 0 400 600">
  <defs>
    <linearGradient id="bg" x1="0" y1="0" x2="0.4" y2="1">
      <stop offset="0" stop-color="#1c0d3b"/>
      <stop offset="0.65" stop-color="#0c0b10"/>
      <stop offset="1" stop-color="#080809"/>
    </linearGradient>
    <radialGradient id="glow" cx="0.5" cy="0.32" r="0.55">
      <stop offset="0" stop-color="#8a2dff" stop-opacity="0.5"/>
      <stop offset="1" stop-color="#8a2dff" stop-opacity="0"/>
    </radialGradient>
    <pattern id="scan" width="4" height="4" patternUnits="userSpaceOnUse">
      <rect width="4" height="4" fill="none"/>
      <rect y="3" width="4" height="1" fill="#000" opacity="0.25"/>
    </pattern>
  </defs>
  <rect width="400" height="600" fill="url(#bg)"/>
  <rect width="400" height="600" fill="url(#glow)"/>
  <g opacity="0.95">
  <g fill="none" stroke="#8a2dff">
    <ellipse cx="200" cy="210" rx="160" ry="120" stroke-width="1.5" opacity="0.35"/>
    <ellipse cx="200" cy="210" rx="125" ry="92" stroke-width="1.8" opacity="0.5"/>
    <ellipse cx="200" cy="210" rx="92" ry="66" stroke-width="2" opacity="0.65"/>
    <ellipse cx="200" cy="210" rx="60" ry="42" stroke-width="2.4" opacity="0.85"/>
    <ellipse cx="200" cy="210" rx="30" ry="20" stroke-width="3"/>
  </g>
  <circle cx="200" cy="210" r="6" fill="#8a2dff"/>
  <g stroke="#b57aff" stroke-width="1.5" opacity="0.7" fill="none">
    <path d="M40 210 q10 -14 20 0 t20 0 t20 0"/>
    <path d="M300 210 q10 -14 20 0 t20 0 t20 0"/>
  </g>
  <g stroke="#8a2dff" stroke-width="1" opacity="0.4">
    <line x1="90" y1="330" x2="310" y2="330"/><line x1="110" y1="345" x2="290" y2="345"/>
    <line x1="130" y1="360" x2="270" y2="360"/>
  </g>
</g>
  <rect width="400" height="600" fill="url(#scan)"/>
  <rect x="8" y="8" width="384" height="584" fill="none" stroke="#8a2dff" stroke-opacity="0.55" stroke-width="1.5"/>
  <rect x="14" y="14" width="372" height="572" fill="none" stroke="#ffffff" stroke-opacity="0.08" stroke-width="1"/>
  <rect x="0" y="420" width="400" height="228" fill="#000" opacity="0.35"/>
  <text x="30" y="472" font-family="Arial, sans-serif" font-size="12" font-weight="bold"
        fill="#8a2dff" letter-spacing="6">TERROR</text>
  <text x="30" y="500" font-family="Arial Black, Arial, sans-serif" font-size="30" font-weight="900" fill="#f5f5f7" letter-spacing="1">ECOS DEL</text><text x="30" y="538" font-family="Arial Black, Arial, sans-serif" font-size="30" font-weight="900" fill="#f5f5f7" letter-spacing="1">SUBSUELO</text>
  <rect x="322" y="30" width="48" height="26" rx="3" fill="none" stroke="#8a2dff" stroke-width="1.5"/>
  <text x="346" y="48" font-family="Arial, sans-serif" font-size="14" font-weight="bold"
        fill="#8a2dff" text-anchor="middle">18+</text>
  <text x="30" y="572" font-family="Arial, sans-serif" font-size="9" fill="#8a8a93"
        letter-spacing="5">MICOS HAKARI · PRESENTA</text>
</svg>